# Blender 3.4.0
# www.blender.org
mtllib gyrodyne.mtl
o controller
v 0.000000 0.375000 0.812500
v -0.062500 0.375000 0.812500
v 0.000000 -0.125000 0.812500
v -0.062500 -0.125000 0.812500
v -0.062500 0.375000 0.875000
v 0.000000 0.375000 0.875000
v -0.062500 -0.125000 0.812500
v 0.000000 -0.125000 0.875000
vn -1.0000 -0.0000 -0.0000
vn -0.0000 -0.0000 -1.0000
vn 1.0000 -0.0000 -0.0000
vn -0.4465 -0.0558 0.8930
vn -0.0000 1.0000 -0.0000
vn -0.0000 -1.0000 -0.0000
vt 0.390625 0.976562
vt 0.421875 0.976562
vt 0.398438 0.984375
vt 0.398438 0.976562
vt 0.390625 0.914062
vt 0.421875 0.914062
vt 0.406250 0.984375
vt 0.398438 0.914062
vt 0.406250 0.976562
vt 0.406250 0.976562
vt 0.414062 0.976562
vt 0.406250 0.984375
vt 0.406250 0.914062
vt 0.414062 0.976562
vt 0.414062 0.914062
vt 0.414062 0.984375
s 0
usemtl material
f 4/8/1 7/13/1 5/10/1 2/4/1
f 3/5/2 4/8/2 2/4/2 1/1/2
f 8/15/3 3/6/3 1/2/3 6/11/3
f 7/13/4 8/15/4 6/11/4 5/10/4
f 6/12/5 1/3/5 2/4/5 5/10/5
f 7/14/6 4/9/6 3/7/6 8/16/6
o frame
v -0.375000 0.375000 -0.812500
v -0.500000 0.375000 -0.812500
v -0.375000 -0.125000 -0.812500
v -0.500000 -0.125000 -0.812500
v -0.500000 0.375000 0.937500
v -0.375000 0.375000 0.937500
v -0.500000 -0.125000 0.937500
v -0.375000 -0.125000 0.937500
v -0.187500 0.000000 1.062500
v -0.250000 0.000000 1.062500
v -0.187500 -0.125000 1.062500
v -0.250000 -0.125000 1.062500
v -0.250000 0.000000 2.687500
v -0.187500 0.000000 2.687500
v -0.250000 -0.125000 2.687500
v -0.187500 -0.125000 2.687500
v 0.250000 0.000000 1.062500
v 0.187500 0.000000 1.062500
v 0.250000 -0.125000 1.062500
v 0.187500 -0.125000 1.062500
v 0.187500 0.000000 2.687500
v 0.250000 0.000000 2.687500
v 0.187500 -0.125000 2.687500
v 0.250000 -0.125000 2.687500
v 0.125000 0.125000 2.187500
v -0.125000 0.125000 2.187500
v 0.125000 -0.250000 2.187500
v -0.125000 -0.250000 2.187500
v -0.125000 0.125000 2.562500
v 0.125000 0.125000 2.562500
v -0.125000 -0.250000 2.562500
v 0.125000 -0.250000 2.562500
v 0.562500 0.187500 -0.937500
v -0.562500 0.187500 -0.937500
v 0.562500 -0.125000 -0.937500
v -0.562500 -0.125000 -0.937500
v -0.562500 0.187500 -0.812500
v 0.562500 0.187500 -0.812500
v -0.562500 -0.125000 -0.812500
v 0.562500 -0.125000 -0.812500
v 0.062500 1.937500 -0.062500
v 0.000000 1.937500 -0.062500
v 0.000000 -0.062500 -0.062500
v -0.062500 -0.062500 -0.062500
v 0.000000 1.937500 0.000000
v 0.062500 1.937500 0.000000
v -0.062500 -0.062500 0.000000
v 0.000000 -0.062500 0.000000
v 0.562500 0.375000 0.937500
v -0.562500 0.375000 0.937500
v 0.562500 -0.125000 0.937500
v -0.562500 -0.125000 0.937500
v -0.562500 0.375000 1.062500
v 0.562500 0.375000 1.062500
v -0.562500 -0.125000 1.062500
v 0.562500 -0.125000 1.062500
v -0.500000 0.000000 -1.500000
v -0.625000 0.000000 -1.500000
v -0.500000 -0.125000 -1.500000
v -0.625000 -0.125000 -1.500000
v -0.625000 0.000000 1.000000
v -0.500000 0.000000 1.000000
v -0.625000 -0.125000 1.000000
v -0.500000 -0.125000 1.000000
v 0.500000 0.375000 -0.812500
v 0.375000 0.375000 -0.812500
v 0.500000 -0.125000 -0.812500
v 0.375000 -0.125000 -0.812500
v 0.375000 0.375000 0.937500
v 0.500000 0.375000 0.937500
v 0.375000 -0.125000 0.937500
v 0.500000 -0.125000 0.937500
v 0.625000 0.000000 -1.500000
v 0.500000 0.000000 -1.500000
v 0.625000 -0.125000 -1.500000
v 0.500000 -0.125000 -1.500000
v 0.500000 0.000000 1.000000
v 0.625000 0.000000 1.000000
v 0.500000 -0.125000 1.000000
v 0.625000 -0.125000 1.000000
v 0.312500 -0.062500 2.312500
v -0.312500 0.000000 2.312500
v 0.312500 -0.125000 2.312500
v -0.312500 -0.062500 2.312500
v -0.312500 0.000000 2.375000
v 0.312500 -0.062500 2.375000
v -0.312500 -0.062500 2.375000
v 0.312500 -0.125000 2.375000
v 0.562500 -0.125000 -1.000000
v -0.562500 -0.125000 -1.000000
v 0.562500 -0.187500 -1.000000
v -0.562500 -0.187500 -1.000000
v -0.562500 -0.125000 1.125000
v 0.562500 -0.125000 1.125000
v -0.562500 -0.187500 1.125000
v 0.562500 -0.187500 1.125000
vn -1.0000 -0.0000 -0.0000
vn -0.0000 -0.0000 -1.0000
vn 1.0000 -0.0000 -0.0000
vn -0.0000 -0.0000 1.0000
vn -0.0000 1.0000 -0.0000
vn -0.0000 -1.0000 -0.0000
vn -0.9995 0.0312 -0.0000
vn 0.9995 -0.0312 -0.0000
vn 0.0995 0.9950 -0.0000
vn -0.0995 -0.9950 -0.0000
vt 0.039062 0.773438
vt 0.507812 0.773438
vt 0.054688 0.789062
vt 0.054688 0.773438
vt 0.039062 0.710938
vt 0.507812 0.710938
vt 0.273438 0.789062
vt 0.054688 0.710938
vt 0.273438 0.773438
vt 0.273438 0.773438
vt 0.289062 0.773438
vt 0.273438 0.789062
vt 0.273438 0.710938
vt 0.492188 0.773438
vt 0.289062 0.710938
vt 0.492188 0.789062
vt 0.031250 0.625000
vt 0.453125 0.625000
vt 0.039062 0.632812
vt 0.039062 0.625000
vt 0.031250 0.609375
vt 0.453125 0.609375
vt 0.242188 0.632812
vt 0.039062 0.609375
vt 0.242188 0.625000
vt 0.242188 0.625000
vt 0.250000 0.625000
vt 0.242188 0.632812
vt 0.242188 0.609375
vt 0.445312 0.625000
vt 0.250000 0.609375
vt 0.445312 0.632812
vt 0.031250 0.625000
vt 0.453125 0.625000
vt 0.039062 0.632812
vt 0.039062 0.625000
vt 0.031250 0.609375
vt 0.453125 0.609375
vt 0.242188 0.632812
vt 0.039062 0.609375
vt 0.242188 0.625000
vt 0.242188 0.625000
vt 0.250000 0.625000
vt 0.242188 0.632812
vt 0.242188 0.609375
vt 0.445312 0.625000
vt 0.250000 0.609375
vt 0.445312 0.632812
vt 0.218750 0.960938
vt 0.375000 0.960938
vt 0.250000 0.992188
vt 0.250000 0.960938
vt 0.218750 0.914062
vt 0.375000 0.914062
vt 0.296875 0.992188
vt 0.250000 0.914062
vt 0.296875 0.960938
vt 0.296875 0.960938
vt 0.328125 0.960938
vt 0.296875 0.992188
vt 0.296875 0.914062
vt 0.343750 0.960938
vt 0.328125 0.914062
vt 0.343750 0.992188
vt 0.039062 0.859375
vt 0.351562 0.859375
vt 0.179688 1.000000
vt 0.179688 0.859375
vt 0.039062 0.820312
vt 0.351562 0.820312
vt 0.195312 1.000000
vt 0.179688 0.820312
vt 0.195312 0.859375
vt 0.195312 0.859375
vt 0.335938 0.859375
vt 0.195312 1.000000
vt 0.195312 0.820312
vt 0.210938 0.859375
vt 0.335938 0.820312
vt 0.210938 1.000000
vt 0.000000 0.992188
vt 0.031250 0.992188
vt 0.007812 1.000000
vt 0.007812 0.992188
vt 0.000000 0.742188
vt 0.031250 0.742188
vt 0.015625 1.000000
vt 0.007812 0.742188
vt 0.015625 0.992188
vt 0.015625 0.992188
vt 0.023438 0.992188
vt 0.015625 1.000000
vt 0.015625 0.742188
vt 0.023438 0.992188
vt 0.023438 0.742188
vt 0.023438 1.000000
vt 0.359375 0.859375
vt 0.671875 0.859375
vt 0.500000 1.000000
vt 0.500000 0.859375
vt 0.359375 0.796875
vt 0.671875 0.796875
vt 0.515625 1.000000
vt 0.500000 0.796875
vt 0.515625 0.859375
vt 0.515625 0.859375
vt 0.656250 0.859375
vt 0.515625 1.000000
vt 0.515625 0.796875
vt 0.531250 0.859375
vt 0.656250 0.796875
vt 0.531250 1.000000
vt 0.015625 0.585938
vt 0.671875 0.585938
vt 0.031250 0.601562
vt 0.031250 0.585938
vt 0.015625 0.570312
vt 0.671875 0.570312
vt 0.343750 0.601562
vt 0.031250 0.570312
vt 0.343750 0.585938
vt 0.343750 0.585938
vt 0.359375 0.585938
vt 0.343750 0.601562
vt 0.343750 0.570312
vt 0.656250 0.585938
vt 0.359375 0.570312
vt 0.656250 0.601562
vt 0.039062 0.773438
vt 0.507812 0.773438
vt 0.054688 0.789062
vt 0.054688 0.773438
vt 0.039062 0.710938
vt 0.507812 0.710938
vt 0.273438 0.789062
vt 0.054688 0.710938
vt 0.273438 0.773438
vt 0.273438 0.773438
vt 0.289062 0.773438
vt 0.273438 0.789062
vt 0.273438 0.710938
vt 0.492188 0.773438
vt 0.289062 0.710938
vt 0.492188 0.789062
vt 0.015625 0.585938
vt 0.671875 0.585938
vt 0.031250 0.601562
vt 0.031250 0.585938
vt 0.015625 0.570312
vt 0.671875 0.570312
vt 0.343750 0.601562
vt 0.031250 0.570312
vt 0.343750 0.585938
vt 0.343750 0.585938
vt 0.359375 0.585938
vt 0.343750 0.601562
vt 0.343750 0.570312
vt 0.656250 0.585938
vt 0.359375 0.570312
vt 0.656250 0.601562
vt 0.539062 0.875000
vt 0.710938 0.875000
vt 0.617188 0.953125
vt 0.617188 0.875000
vt 0.539062 0.867188
vt 0.710938 0.867188
vt 0.625000 0.953125
vt 0.617188 0.867188
vt 0.625000 0.875000
vt 0.625000 0.875000
vt 0.703125 0.875000
vt 0.625000 0.953125
vt 0.625000 0.867188
vt 0.632812 0.875000
vt 0.703125 0.867188
vt 0.632812 0.953125
vt 0.000000 0.390625
vt 0.812500 0.390625
vt 0.140625 0.531250
vt 0.140625 0.390625
vt 0.000000 0.382812
vt 0.812500 0.382812
vt 0.406250 0.531250
vt 0.140625 0.382812
vt 0.406250 0.390625
vt 0.406250 0.390625
vt 0.546875 0.390625
vt 0.406250 0.531250
vt 0.406250 0.382812
vt 0.671875 0.390625
vt 0.546875 0.382812
vt 0.671875 0.531250
s 0
usemtl material
f 12/24/7 15/29/7 13/26/7 10/20/7
f 11/21/8 12/24/8 10/20/8 9/17/8
f 16/31/9 11/22/9 9/18/9 14/27/9
f 15/29/10 16/31/10 14/27/10 13/26/10
f 14/28/11 9/19/11 10/20/11 13/26/11
f 15/30/12 12/25/12 11/23/12 16/32/12
f 20/40/7 23/45/7 21/42/7 18/36/7
f 19/37/8 20/40/8 18/36/8 17/33/8
f 24/47/9 19/38/9 17/34/9 22/43/9
f 23/45/10 24/47/10 22/43/10 21/42/10
f 22/44/11 17/35/11 18/36/11 21/42/11
f 23/46/12 20/41/12 19/39/12 24/48/12
f 28/56/7 31/61/7 29/58/7 26/52/7
f 27/53/8 28/56/8 26/52/8 25/49/8
f 32/63/9 27/54/9 25/50/9 30/59/9
f 31/61/10 32/63/10 30/59/10 29/58/10
f 30/60/11 25/51/11 26/52/11 29/58/11
f 31/62/12 28/57/12 27/55/12 32/64/12
f 36/72/7 39/77/7 37/74/7 34/68/7
f 35/69/8 36/72/8 34/68/8 33/65/8
f 40/79/9 35/70/9 33/66/9 38/75/9
f 39/77/10 40/79/10 38/75/10 37/74/10
f 38/76/11 33/67/11 34/68/11 37/74/11
f 39/78/12 36/73/12 35/71/12 40/80/12
f 44/88/7 47/93/7 45/90/7 42/84/7
f 43/85/8 44/88/8 42/84/8 41/81/8
f 48/95/9 43/86/9 41/82/9 46/91/9
f 47/93/10 48/95/10 46/91/10 45/90/10
f 46/92/11 41/83/11 42/84/11 45/90/11
f 47/94/12 44/89/12 43/87/12 48/96/12
f 52/104/13 55/109/13 53/106/13 50/100/13
f 51/101/8 52/104/8 50/100/8 49/97/8
f 56/111/14 51/102/14 49/98/14 54/107/14
f 55/109/10 56/111/10 54/107/10 53/106/10
f 54/108/11 49/99/11 50/100/11 53/106/11
f 55/110/12 52/105/12 51/103/12 56/112/12
f 60/120/7 63/125/7 61/122/7 58/116/7
f 59/117/8 60/120/8 58/116/8 57/113/8
f 64/127/9 59/118/9 57/114/9 62/123/9
f 63/125/10 64/127/10 62/123/10 61/122/10
f 62/124/11 57/115/11 58/116/11 61/122/11
f 63/126/12 60/121/12 59/119/12 64/128/12
f 68/136/7 71/141/7 69/138/7 66/132/7
f 67/133/8 68/136/8 66/132/8 65/129/8
f 72/143/9 67/134/9 65/130/9 70/139/9
f 71/141/10 72/143/10 70/139/10 69/138/10
f 70/140/11 65/131/11 66/132/11 69/138/11
f 71/142/12 68/137/12 67/135/12 72/144/12
f 76/152/7 79/157/7 77/154/7 74/148/7
f 75/149/8 76/152/8 74/148/8 73/145/8
f 80/159/9 75/150/9 73/146/9 78/155/9
f 79/157/10 80/159/10 78/155/10 77/154/10
f 78/156/11 73/147/11 74/148/11 77/154/11
f 79/158/12 76/153/12 75/151/12 80/160/12
f 84/168/7 87/173/7 85/170/7 82/164/7
f 83/165/8 84/168/8 82/164/8 81/161/8
f 88/175/9 83/166/9 81/162/9 86/171/9
f 87/173/10 88/175/10 86/171/10 85/170/10
f 86/172/11 81/163/11 82/164/11 85/170/11
f 87/174/12 84/169/12 83/167/12 88/176/12
f 92/184/7 95/189/7 93/186/7 90/180/7
f 91/181/8 92/184/8 90/180/8 89/177/8
f 96/191/9 91/182/9 89/178/9 94/187/9
f 95/189/10 96/191/10 94/187/10 93/186/10
f 94/188/15 89/179/15 90/180/15 93/186/15
f 95/190/16 92/185/16 91/183/16 96/192/16
f 100/200/7 103/205/7 101/202/7 98/196/7
f 99/197/8 100/200/8 98/196/8 97/193/8
f 104/207/9 99/198/9 97/194/9 102/203/9
f 103/205/10 104/207/10 102/203/10 101/202/10
f 102/204/11 97/195/11 98/196/11 101/202/11
f 103/206/12 100/201/12 99/199/12 104/208/12
o propeller
v 1.500000 1.875000 -1.437500
v -1.500000 1.875000 -1.437500
v -1.500000 1.875000 1.562500
v 1.500000 1.875000 1.562500
v 1.500000 1.875000 1.562500
v -1.500000 1.875000 1.562500
v -1.500000 1.875000 -1.437500
v 1.500000 1.875000 -1.437500
vn -0.0000 1.0000 -0.0000
vn -0.0000 -1.0000 -0.0000
vt 0.382812 0.375000
vt 0.382812 0.000000
vt 0.757812 0.000000
vt 0.757812 0.375000
vt 0.757812 0.375000
vt 0.757812 0.000000
vt 0.382812 0.000000
vt 0.382812 0.375000
s 0
usemtl material
f 108/212/17 105/209/17 106/210/17 107/211/17
f 109/213/18 110/214/18 111/215/18 112/216/18
o wings
v -0.500000 0.062500 -0.437500
v -2.500000 0.062500 -0.437500
v -2.500000 0.062500 0.562500
v -0.500000 0.062500 0.562500
v 0.500000 0.062500 -0.437500
v 2.500000 0.062500 -0.437500
v 2.500000 0.062500 0.562500
v 0.500000 0.062500 0.562500
v -0.500000 0.062500 -0.437500
v -2.500000 0.062500 -0.437500
v -2.500000 0.062500 0.562500
v -0.500000 0.062500 0.562500
v 0.500000 0.062500 -0.437500
v 2.500000 0.062500 -0.437500
v 2.500000 0.062500 0.562500
v 0.500000 0.062500 0.562500
vn -0.0000 1.0000 -0.0000
vn -0.0000 -1.0000 -0.0000
vt 0.023438 0.328125
vt 0.273438 0.328125
vt 0.273438 0.203125
vt 0.023438 0.203125
vt 0.273438 0.171875
vt 0.023438 0.171875
vt 0.023438 0.046875
vt 0.273438 0.046875
vt 0.023438 0.328125
vt 0.273438 0.328125
vt 0.273438 0.203125
vt 0.023438 0.203125
vt 0.273438 0.171875
vt 0.023438 0.171875
vt 0.023438 0.046875
vt 0.273438 0.046875
s 0
usemtl material
f 116/220/19 113/217/19 114/218/19 115/219/19
f 120/224/20 117/221/20 118/222/20 119/223/20
f 124/228/20 123/227/20 122/226/20 121/225/20
f 128/232/19 127/231/19 126/230/19 125/229/19
o controller_2
v 0.312500 -0.125000 0.812500
v 0.250000 -0.125000 0.812500
v 0.250000 -0.125000 0.875000
v 0.312500 -0.125000 0.812500
v 0.312500 0.187500 0.812500
v 0.250000 0.187500 0.812500
v 0.312500 0.187500 0.875000
v 0.250000 0.187500 0.875000
vn -0.0000 1.0000 -0.0000
vn -0.0000 -1.0000 -0.0000
vn 0.4454 -0.0891 0.8909
vn 1.0000 -0.0000 -0.0000
vn -0.0000 -0.0000 -1.0000
vn -1.0000 -0.0000 -0.0000
vt 0.406250 0.984375
vt 0.421875 0.914062
vt 0.390625 0.914062
vt 0.406250 0.976562
vt 0.398438 0.914062
vt 0.414062 0.976562
vt 0.406250 0.914062
vt 0.414062 0.984375
vt 0.414062 0.914062
vt 0.421875 0.953125
vt 0.390625 0.953125
vt 0.421875 0.960938
vt 0.398438 0.953125
vt 0.414062 0.953125
vt 0.414062 0.960938
vt 0.406250 0.953125
s 0
usemtl material
f 135/246/21 133/242/21 134/244/21 136/247/21
f 131/238/22 130/236/22 129/233/22 132/240/22
f 131/239/23 132/241/23 135/246/23 136/248/23
f 132/241/24 129/234/24 133/242/24 135/246/24
f 129/235/25 130/237/25 134/245/25 133/243/25
f 130/237/26 131/239/26 136/248/26 134/245/26
