# Blender 3.4.0
# www.blender.org
mtllib quadrocopter.mtl
o propeller
v -0.500000 0.000000 -0.500000
v -0.500000 0.000000 0.500000
v 0.500000 0.000000 0.500000
v 0.500000 0.000000 -0.500000
vn -0.0000 1.0000 -0.0000
vt 0.265625 0.796875
vt 0.265625 0.546875
vt 0.515625 0.546875
vt 0.515625 0.796875
s 0
usemtl Material_0
f 2/2/1 3/3/1 4/4/1 1/1/1
o frame
v -1.437500 0.000000 0.656250
v -1.250000 0.500000 0.468750
v -1.250000 0.000000 0.843750
v -1.250000 0.000000 0.468750
v -1.062500 0.500000 0.656250
v -1.250000 0.500000 0.843750
v -1.437500 0.500000 0.656250
v -1.062500 0.000000 0.656250
v -0.531250 0.500000 -0.812500
v -0.531250 0.500000 0.750000
v 0.531250 0.500000 0.750000
v -0.531250 0.312500 0.750000
v 0.531250 0.312500 0.750000
v 0.531250 0.500000 -0.812500
v 0.531250 0.312500 -0.812500
v -0.531250 0.312500 -0.812500
v -1.468750 0.312500 -0.812500
v -1.468750 0.312500 -0.625000
v 1.468750 0.312500 -0.625000
v -1.468750 0.125000 -0.625000
v 1.468750 0.125000 -0.625000
v 1.468750 0.312500 -0.812500
v 1.468750 0.125000 -0.812500
v -1.468750 0.125000 -0.812500
v -1.468750 0.312500 0.562500
v -1.468750 0.312500 0.750000
v 1.468750 0.312500 0.750000
v -1.468750 0.125000 0.750000
v 1.468750 0.125000 0.750000
v 1.468750 0.312500 0.562500
v 1.468750 0.125000 0.562500
v -1.468750 0.125000 0.562500
v 1.437500 0.000000 0.656250
v 1.062500 0.500000 0.656250
v 1.250000 0.500000 0.843750
v 1.437500 0.500000 0.656250
v 1.250000 0.000000 0.468750
v 1.250000 0.000000 0.843750
v 1.250000 0.500000 0.468750
v 1.062500 0.000000 0.656250
v -1.437500 0.000000 -0.718750
v -1.250000 0.500000 -0.906250
v -1.250000 0.000000 -0.531250
v -1.250000 0.000000 -0.906250
v -1.062500 0.500000 -0.718750
v -1.250000 0.500000 -0.531250
v -1.437500 0.500000 -0.718750
v -1.062500 0.000000 -0.718750
v 1.437500 0.000000 -0.718750
v 1.062500 0.500000 -0.718750
v 1.250000 0.500000 -0.531250
v 1.437500 0.500000 -0.718750
v 1.250000 0.000000 -0.906250
v 1.250000 0.000000 -0.531250
v 1.250000 0.500000 -0.906250
v 1.062500 0.000000 -0.718750
vn -0.0000 -1.0000 -0.0000
vn 0.7071 -0.0000 -0.7071
vn 0.7071 -0.0000 0.7071
vn -0.7071 -0.0000 -0.7071
vn -0.0000 1.0000 -0.0000
vn -0.7071 -0.0000 0.7071
vn -0.0000 -0.0000 -1.0000
vn 1.0000 -0.0000 -0.0000
vn -0.0000 -0.0000 1.0000
vn -1.0000 -0.0000 -0.0000
vt 0.000000 0.406250
vt 0.062500 0.281250
vt 0.000000 0.281250
vt 0.062500 0.406250
vt 0.000000 0.406250
vt 0.062500 0.468750
vt 0.000000 0.468750
vt 0.000000 0.281250
vt 0.062500 0.281250
vt 0.062500 0.406250
vt 0.062500 0.281250
vt 0.000000 0.281250
vt 0.000000 0.406250
vt 0.062500 0.406250
vt 0.000000 0.406250
vt 0.062500 0.406250
vt 0.062500 0.406250
vt 0.000000 0.468750
vt 0.000000 0.406250
vt 0.062500 0.468750
vt 0.000000 0.281250
vt 0.062500 0.281250
vt 0.265625 0.578125
vt 0.000000 1.000000
vt 0.140625 0.531250
vt 0.000000 0.609375
vt 0.000000 0.578125
vt 0.531250 0.531250
vt 0.140625 0.531250
vt 0.265625 0.609375
vt 0.265625 0.578125
vt 0.000000 1.000000
vt 0.000000 0.531250
vt 0.531250 0.484375
vt 0.140625 0.484375
vt 0.265625 1.000000
vt 0.265625 0.531250
vt 0.000000 0.578125
vt 0.531250 0.531250
vt 0.265625 1.000000
vt 0.000000 0.531250
vt 0.531250 0.484375
vt 0.265625 0.609375
vt 0.265625 0.531250
vt 0.000000 0.609375
vt 0.140625 0.484375
vt 1.000000 0.953125
vt 0.265625 1.000000
vt 0.000000 0.578125
vt 0.265625 0.953125
vt 0.046875 0.578125
vt 0.218750 0.578125
vt 1.000000 0.953125
vt 0.265625 0.906250
vt 0.046875 0.531250
vt 0.218750 0.531250
vt 1.000000 0.906250
vt 0.265625 0.953125
vt 0.265625 0.578125
vt 1.000000 1.000000
vt 0.265625 0.906250
vt 0.265625 0.531250
vt 1.000000 0.859375
vt 1.000000 0.906250
vt 0.265625 0.859375
vt 0.000000 0.531250
vt 1.000000 0.945312
vt 0.265625 1.000000
vt 0.000000 0.578125
vt 0.265625 0.953125
vt 0.046875 0.578125
vt 0.218750 0.578125
vt 1.000000 0.953125
vt 0.265625 0.906250
vt 0.046875 0.531250
vt 0.218750 0.531250
vt 1.000000 0.906250
vt 0.265625 0.945312
vt 0.265625 0.578125
vt 1.000000 1.000000
vt 0.265625 0.898438
vt 0.265625 0.531250
vt 1.000000 0.859375
vt 1.000000 0.898438
vt 0.265625 0.859375
vt 0.000000 0.531250
vt 0.000000 0.281250
vt 0.062500 0.468750
vt 0.062500 0.281250
vt 0.062500 0.406250
vt 0.000000 0.468750
vt 0.000000 0.406250
vt 0.000000 0.406250
vt 0.062500 0.406250
vt 0.000000 0.406250
vt 0.062500 0.406250
vt 0.000000 0.281250
vt 0.062500 0.281250
vt 0.062500 0.406250
vt 0.000000 0.468750
vt 0.000000 0.281250
vt 0.062500 0.281250
vt 0.000000 0.406250
vt 0.062500 0.406250
vt 0.062500 0.468750
vt 0.062500 0.281250
vt 0.000000 0.406250
vt 0.000000 0.281250
vt 0.000000 0.406250
vt 0.062500 0.281250
vt 0.000000 0.281250
vt 0.062500 0.406250
vt 0.000000 0.406250
vt 0.062500 0.468750
vt 0.000000 0.468750
vt 0.000000 0.281250
vt 0.062500 0.281250
vt 0.062500 0.406250
vt 0.062500 0.281250
vt 0.000000 0.281250
vt 0.000000 0.406250
vt 0.062500 0.406250
vt 0.000000 0.406250
vt 0.062500 0.406250
vt 0.062500 0.406250
vt 0.000000 0.468750
vt 0.000000 0.406250
vt 0.062500 0.468750
vt 0.000000 0.281250
vt 0.062500 0.281250
vt 0.000000 0.281250
vt 0.062500 0.468750
vt 0.062500 0.281250
vt 0.062500 0.406250
vt 0.000000 0.468750
vt 0.000000 0.406250
vt 0.000000 0.406250
vt 0.062500 0.406250
vt 0.000000 0.406250
vt 0.062500 0.406250
vt 0.000000 0.281250
vt 0.062500 0.281250
vt 0.062500 0.406250
vt 0.000000 0.468750
vt 0.000000 0.281250
vt 0.062500 0.281250
vt 0.000000 0.406250
vt 0.062500 0.406250
vt 0.062500 0.468750
vt 0.062500 0.281250
vt 0.000000 0.406250
vt 0.000000 0.281250
s 0
usemtl Material_0
f 5/5/2 8/14/2 12/24/2 7/11/2
f 12/25/3 8/15/3 6/8/3 9/17/3
f 7/12/4 12/26/4 9/18/4 10/19/4
f 8/16/5 5/6/5 11/21/5 6/9/5
f 10/19/6 9/18/6 6/10/6 11/22/6
f 5/7/7 7/13/7 10/20/7 11/23/7
f 19/45/8 20/48/8 13/27/8 18/42/8
f 17/39/9 19/46/9 18/43/9 15/33/9
f 14/30/6 15/34/6 18/44/6 13/28/6
f 20/49/2 19/47/2 17/40/2 16/36/2
f 16/37/10 17/41/10 15/35/10 14/31/10
f 20/50/11 16/38/11 14/32/11 13/29/11
f 27/65/8 28/68/8 21/51/8 26/62/8
f 25/60/9 27/66/9 26/63/9 23/56/9
f 22/54/6 23/57/6 26/64/6 21/52/6
f 28/69/2 27/67/2 25/61/2 24/58/2
f 24/58/10 25/61/10 23/57/10 22/54/10
f 28/70/11 24/59/11 22/55/11 21/53/11
f 35/85/8 36/88/8 29/71/8 34/82/8
f 33/80/9 35/86/9 34/83/9 31/76/9
f 30/74/6 31/77/6 34/84/6 29/72/6
f 36/89/2 35/87/2 33/81/2 32/78/2
f 32/78/10 33/81/10 31/77/10 30/74/10
f 36/90/11 32/79/11 30/75/11 29/73/11
f 41/101/5 44/110/5 38/94/5 43/107/5
f 37/91/3 41/102/3 43/108/3 40/99/3
f 39/97/6 40/100/6 43/109/6 38/95/6
f 44/111/2 41/103/2 37/92/2 42/104/2
f 42/105/4 37/93/4 40/100/4 39/97/4
f 44/112/7 42/106/7 39/98/7 38/96/7
f 45/113/2 48/122/2 52/132/2 47/119/2
f 52/133/3 48/123/3 46/116/3 49/125/3
f 47/120/4 52/134/4 49/126/4 50/127/4
f 48/124/5 45/114/5 51/129/5 46/117/5
f 50/127/6 49/126/6 46/118/6 51/130/6
f 45/115/7 47/121/7 50/128/7 51/131/7
f 57/145/5 60/154/5 54/138/5 59/151/5
f 53/135/3 57/146/3 59/152/3 56/143/3
f 55/141/6 56/144/6 59/153/6 54/139/6
f 60/155/2 57/147/2 53/136/2 58/148/2
f 58/149/4 53/137/4 56/144/4 55/141/4
f 60/156/7 58/150/7 55/142/7 54/140/7
o engine_0
v -0.218750 0.500000 -0.312500
v -0.218750 0.875000 -0.312500
v -0.218750 0.500000 -0.750000
v -0.218750 0.875000 -0.750000
v 0.218750 0.500000 -0.312500
v 0.218750 0.875000 -0.312500
v 0.218750 0.500000 -0.750000
v 0.218750 0.875000 -0.750000
v -0.281250 0.531250 -0.625000
v -0.281250 0.656250 -0.500000
v -0.281250 0.656250 -0.750000
v -0.281250 0.781250 -0.625000
v -0.218750 0.531250 -0.625000
v -0.218750 0.656250 -0.500000
v -0.218750 0.781250 -0.625000
v -0.281250 0.656250 -0.406250
v -0.281250 0.750000 -0.312500
v -0.281250 0.750000 -0.500000
v -0.281250 0.843750 -0.406250
v -0.218750 0.656250 -0.406250
v -0.218750 0.750000 -0.500000
v -0.218750 0.843750 -0.406250
v 0.218750 0.656250 -0.250000
v 0.218750 0.781250 -0.250000
v 0.218750 0.656250 -0.812500
v 0.218750 0.781250 -0.812500
v 0.343750 0.656250 -0.250000
v 0.343750 0.781250 -0.250000
v 0.343750 0.656250 -0.812500
v 0.343750 0.781250 -0.812500
v -0.281250 0.781250 -0.625000
v -0.281250 0.656250 -0.750000
v -0.218750 0.781250 -0.625000
v -0.218750 0.656250 -0.750000
v -0.281250 0.843750 -0.406250
v -0.218750 0.843750 -0.406250
v -0.281250 0.750000 -0.312500
v -0.218750 0.750000 -0.312500
v -0.281250 0.656250 -0.406250
v -0.218750 0.656250 -0.406250
v -0.281250 0.531250 -0.625000
v -0.218750 0.531250 -0.625000
vn -1.0000 -0.0000 -0.0000
vn -0.0000 -0.0000 -1.0000
vn 1.0000 -0.0000 -0.0000
vn -0.0000 -0.0000 1.0000
vn -0.0000 -1.0000 -0.0000
vn -0.0000 1.0000 -0.0000
vn -0.0000 -0.7071 0.7071
vn -0.0000 0.7071 0.7071
vn -0.0000 0.7071 -0.7071
vn -0.0000 -0.7071 -0.7071
vn -0.0000 0.9615 -0.2747
vn -0.0000 -0.8682 0.4961
vt 0.171875 0.468750
vt 0.062500 0.375000
vt 0.062500 0.359375
vt 0.171875 0.375000
vt 0.062500 0.468750
vt 0.171875 0.359375
vt 0.281250 0.468750
vt 0.171875 0.375000
vt 0.062500 0.250000
vt 0.281250 0.375000
vt 0.171875 0.468750
vt 0.171875 0.250000
vt 0.281250 0.468750
vt 0.171875 0.375000
vt 0.171875 0.359375
vt 0.281250 0.375000
vt 0.171875 0.468750
vt 0.062500 0.359375
vt 0.062500 0.375000
vt 0.171875 0.468750
vt 0.171875 0.250000
vt 0.062500 0.468750
vt 0.171875 0.375000
vt 0.062500 0.250000
vt 0.203125 0.281250
vt 0.265625 0.328125
vt 0.250000 0.281250
vt 0.265625 0.281250
vt 0.250000 0.328125
vt 0.203125 0.328125
vt 0.250000 0.328125
vt 0.203125 0.328125
vt 0.250000 0.328125
vt 0.250000 0.281250
vt 0.250000 0.343750
vt 0.203125 0.343750
vt 0.296875 0.296875
vt 0.328125 0.296875
vt 0.328125 0.296875
vt 0.296875 0.328125
vt 0.281250 0.328125
vt 0.296875 0.296875
vt 0.328125 0.328125
vt 0.281250 0.296875
vt 0.328125 0.281250
vt 0.296875 0.328125
vt 0.296875 0.281250
vt 0.296875 0.296875
vt 0.312500 0.437500
vt 0.453125 0.468750
vt 0.453125 0.406250
vt 0.312500 0.406250
vt 0.484375 0.468750
vt 0.453125 0.437500
vt 0.453125 0.437500
vt 0.312500 0.406250
vt 0.453125 0.406250
vt 0.484375 0.437500
vt 0.312500 0.437500
vt 0.453125 0.437500
vt 0.453125 0.375000
vt 0.453125 0.406250
vt 0.484375 0.437500
vt 0.453125 0.468750
vt 0.453125 0.468750
vt 0.312500 0.437500
vt 0.312500 0.375000
vt 0.484375 0.468750
vt 0.312500 0.406250
vt 0.312500 0.468750
vt 0.367188 0.250000
vt 0.242188 0.250000
vt 0.414062 0.250000
vt 0.367188 0.234375
vt 0.242188 0.234375
vt 0.414062 0.234375
vt 0.187500 0.250000
vt 0.273438 0.250000
vt 0.187500 0.234375
vt 0.273438 0.234375
vt 0.242188 0.250000
vt 0.304688 0.250000
vt 0.242188 0.234375
vt 0.304688 0.234375
vt 0.273438 0.250000
vt 0.367188 0.250000
vt 0.273438 0.234375
vt 0.367188 0.234375
vt 0.460938 0.250000
vt 0.304688 0.250000
vt 0.460938 0.234375
vt 0.304688 0.234375
s 0
usemtl Material_0
f 61/157/12 62/160/12 64/166/12 63/163/12
f 63/164/13 64/167/13 68/178/13 67/175/13
f 67/176/14 68/179/14 66/172/14 65/169/14
f 65/170/15 66/173/15 62/161/15 61/158/15
f 63/165/16 67/177/16 65/171/16 61/159/16
f 68/180/17 64/168/17 62/162/17 66/174/17
f 69/181/12 70/183/12 72/187/12 71/186/12
f 73/189/18 74/190/18 70/184/18 69/182/18
f 75/192/19 72/188/19 70/185/19 74/191/19
f 76/193/12 77/195/12 79/199/12 78/196/12
f 78/197/20 79/200/20 82/204/20 81/202/20
f 78/198/21 81/203/21 80/201/21 76/194/21
f 83/205/12 84/208/12 86/213/12 85/211/12
f 85/211/13 86/214/13 90/224/13 89/221/13
f 89/222/14 90/225/14 88/218/14 87/216/14
f 87/216/15 88/219/15 84/209/15 83/206/15
f 85/212/16 89/223/16 87/217/16 83/207/16
f 90/226/17 86/215/17 84/210/17 88/220/17
f 94/232/20 92/229/20 91/227/20 93/230/20
f 93/231/22 91/228/22 95/233/22 96/235/22
f 96/236/19 95/234/19 97/237/19 98/239/19
f 98/240/18 97/238/18 99/241/18 100/243/18
f 92/229/21 94/232/21 102/247/21 101/245/21
f 100/244/23 99/242/23 101/246/23 102/248/23
o engine_1
v -0.218750 0.500000 -0.312500
v -0.218750 0.875000 -0.312500
v -0.218750 0.500000 -0.750000
v -0.218750 0.875000 -0.750000
v 0.218750 0.500000 -0.312500
v 0.218750 0.875000 -0.312500
v 0.218750 0.500000 -0.750000
v 0.218750 0.875000 -0.750000
v -0.281250 0.531250 -0.625000
v -0.281250 0.656250 -0.500000
v -0.281250 0.656250 -0.750000
v -0.281250 0.781250 -0.625000
v -0.218750 0.531250 -0.625000
v -0.218750 0.656250 -0.500000
v -0.218750 0.781250 -0.625000
v -0.281250 0.656250 -0.406250
v -0.281250 0.750000 -0.312500
v -0.281250 0.750000 -0.500000
v -0.281250 0.843750 -0.406250
v -0.218750 0.656250 -0.406250
v -0.218750 0.750000 -0.500000
v -0.218750 0.843750 -0.406250
v 0.218750 0.656250 -0.250000
v 0.218750 0.781250 -0.250000
v 0.218750 0.656250 -0.812500
v 0.218750 0.781250 -0.812500
v 0.343750 0.656250 -0.250000
v 0.343750 0.781250 -0.250000
v 0.343750 0.656250 -0.812500
v 0.343750 0.781250 -0.812500
v -0.281250 0.781250 -0.625000
v -0.281250 0.656250 -0.750000
v -0.218750 0.781250 -0.625000
v -0.218750 0.656250 -0.750000
v -0.281250 0.843750 -0.406250
v -0.218750 0.843750 -0.406250
v -0.281250 0.750000 -0.312500
v -0.218750 0.750000 -0.312500
v -0.281250 0.656250 -0.406250
v -0.218750 0.656250 -0.406250
v -0.281250 0.531250 -0.625000
v -0.218750 0.531250 -0.625000
vn -1.0000 -0.0000 -0.0000
vn -0.0000 -0.0000 -1.0000
vn 1.0000 -0.0000 -0.0000
vn -0.0000 -0.0000 1.0000
vn -0.0000 -1.0000 -0.0000
vn -0.0000 1.0000 -0.0000
vn -0.0000 -0.7071 0.7071
vn -0.0000 0.7071 0.7071
vn -0.0000 0.7071 -0.7071
vn -0.0000 -0.7071 -0.7071
vn -0.0000 0.9615 -0.2747
vn -0.0000 -0.8682 0.4961
vt 0.171875 0.468750
vt 0.062500 0.375000
vt 0.062500 0.359375
vt 0.171875 0.375000
vt 0.062500 0.468750
vt 0.171875 0.359375
vt 0.281250 0.468750
vt 0.171875 0.375000
vt 0.062500 0.250000
vt 0.281250 0.375000
vt 0.171875 0.468750
vt 0.171875 0.250000
vt 0.281250 0.468750
vt 0.171875 0.375000
vt 0.171875 0.359375
vt 0.281250 0.375000
vt 0.171875 0.468750
vt 0.062500 0.359375
vt 0.062500 0.375000
vt 0.171875 0.468750
vt 0.171875 0.250000
vt 0.062500 0.468750
vt 0.171875 0.375000
vt 0.062500 0.250000
vt 0.203125 0.281250
vt 0.265625 0.328125
vt 0.250000 0.281250
vt 0.265625 0.281250
vt 0.250000 0.328125
vt 0.203125 0.328125
vt 0.250000 0.328125
vt 0.203125 0.328125
vt 0.250000 0.328125
vt 0.250000 0.281250
vt 0.250000 0.343750
vt 0.203125 0.343750
vt 0.296875 0.296875
vt 0.328125 0.296875
vt 0.328125 0.296875
vt 0.296875 0.328125
vt 0.281250 0.328125
vt 0.296875 0.296875
vt 0.328125 0.328125
vt 0.281250 0.296875
vt 0.328125 0.281250
vt 0.296875 0.328125
vt 0.296875 0.281250
vt 0.296875 0.296875
vt 0.312500 0.437500
vt 0.453125 0.468750
vt 0.453125 0.406250
vt 0.312500 0.406250
vt 0.484375 0.468750
vt 0.453125 0.437500
vt 0.453125 0.437500
vt 0.312500 0.406250
vt 0.453125 0.406250
vt 0.484375 0.437500
vt 0.312500 0.437500
vt 0.453125 0.437500
vt 0.453125 0.375000
vt 0.453125 0.406250
vt 0.484375 0.437500
vt 0.453125 0.468750
vt 0.453125 0.468750
vt 0.312500 0.437500
vt 0.312500 0.375000
vt 0.484375 0.468750
vt 0.312500 0.406250
vt 0.312500 0.468750
vt 0.382812 0.250000
vt 0.257812 0.250000
vt 0.429688 0.250000
vt 0.382812 0.234375
vt 0.257812 0.234375
vt 0.429688 0.234375
vt 0.203125 0.250000
vt 0.289062 0.250000
vt 0.203125 0.234375
vt 0.289062 0.234375
vt 0.257812 0.250000
vt 0.320312 0.250000
vt 0.257812 0.234375
vt 0.320312 0.234375
vt 0.289062 0.250000
vt 0.382812 0.250000
vt 0.289062 0.234375
vt 0.382812 0.234375
vt 0.476562 0.250000
vt 0.320312 0.250000
vt 0.476562 0.234375
vt 0.320312 0.234375
s 0
usemtl Material_0
f 103/249/24 104/252/24 106/258/24 105/255/24
f 105/256/25 106/259/25 110/270/25 109/267/25
f 109/268/26 110/271/26 108/264/26 107/261/26
f 107/262/27 108/265/27 104/253/27 103/250/27
f 105/257/28 109/269/28 107/263/28 103/251/28
f 110/272/29 106/260/29 104/254/29 108/266/29
f 111/273/24 112/275/24 114/279/24 113/278/24
f 115/281/30 116/282/30 112/276/30 111/274/30
f 117/284/31 114/280/31 112/277/31 116/283/31
f 118/285/24 119/287/24 121/291/24 120/288/24
f 120/289/32 121/292/32 124/296/32 123/294/32
f 120/290/33 123/295/33 122/293/33 118/286/33
f 125/297/24 126/300/24 128/305/24 127/303/24
f 127/303/25 128/306/25 132/316/25 131/313/25
f 131/314/26 132/317/26 130/310/26 129/308/26
f 129/308/27 130/311/27 126/301/27 125/298/27
f 127/304/28 131/315/28 129/309/28 125/299/28
f 132/318/29 128/307/29 126/302/29 130/312/29
f 136/324/32 134/321/32 133/319/32 135/322/32
f 135/323/34 133/320/34 137/325/34 138/327/34
f 138/328/31 137/326/31 139/329/31 140/331/31
f 140/332/30 139/330/30 141/333/30 142/335/30
f 134/321/33 136/324/33 144/339/33 143/337/33
f 142/336/35 141/334/35 143/338/35 144/340/35
